# xmcd CD database file
#
# Track frame offsets:
#	150
#	12567
#	23127
#	29279
#	51022
#	52443
#	61045
#	71990
#	84715
#	98009
#	106727
#	110670
#	121691
#	133659
#	154926
#	169043
#	188382
#	215668
#	232398
#	251329
#	264685
#	288455
#	303660
#	314330
#	327811
#
# Disc length: 4560 seconds
#
# Revision: 0
# Processed by: cddbd v1.5.1PL0 Copyright (c) Steve Scherf et al.
# Submitted via: CDex 1.60beta1
#
DISCID=6d11ce19
DTITLE=Various Artist - Ryuhei THE MAN - A Message From THE MAN
DYEAR=2004
DGENRE=Jazz
TTITLE0=Burning Spear
TTITLE1=Apatch
TTITLE2=Acetate Prophets
TTITLE3=Let The Music Take Your Mind（MURO Remix）
TTITLE4=Blind Man
TTITLE5=Bunky's Pick
TTITLE6=The Dump
TTITLE7=Super Cool Brother
TTITLE8=Fire Eater
TTITLE9=Freeway Crowd
TTITLE10=Be Black Baby
TTITLE11=Ain't No Other Way
TTITLE12=One Note Brown
TTITLE13=Players Theme
TTITLE14=Theme Of Blackbyrds
TTITLE15=Freeform Theme（RAW Deal Remix）
TTITLE16=Star Chasers（DJ Spinna Remix）
TTITLE17=Don't Fight The Feeling
TTITLE18=Fallen Into Love
TTITLE19=Waiting Patiently
TTITLE20=It's Over Now（MAW Remix）
TTITLE21=Please Be Truthful
TTITLE22=Not Too Young
TTITLE23=Twenty-Four Hours A Day
TTITLE24=World Full Of Peaple
EXTD=YEAR: 2004
EXTT0=
EXTT1=
EXTT2=
EXTT3=
EXTT4=
EXTT5=
EXTT6=
EXTT7=
EXTT8=
EXTT9=
EXTT10=
EXTT11=
EXTT12=
EXTT13=
EXTT14=
EXTT15=
EXTT16=
EXTT17=
EXTT18=
EXTT19=
EXTT20=
EXTT21=
EXTT22=
EXTT23=
EXTT24=
PLAYORDER=
